<svg version="1.2" xmlns="http://www.w3.org/2000/svg" viewBox="0 0 1000 800" width="500" height="400"><style>.a{fill:#ebebeb}.b{fill:#e6e6e6}.c{fill:#f0f0f0}.d{fill:#fafafa}.e{fill:#fff}.f{fill:#f5f5f5}.g{fill:#e0e0e0}.h{fill:#407bff}.i{opacity:.1;fill:#263238}.j{fill:#263238}.k{opacity:.1}.l{opacity:.2;fill:#263238}.m{fill:#ffb573}.n{fill:#ff5652}.o{opacity:.3}.p{opacity:.2}</style><path class="a" d="m1000 680.3h-1000v-0.5h1000z"/><path class="a" d="m833.6 712h66.2v0.5h-66.2z"/><path class="a" d="m520.7 705.7h25.7v0.5h-25.7z"/><path class="a" d="m645.1 707.8h54.2v0.5h-54.2z"/><path class="a" d="m719.3 693.4h112.3v0.5h-112.3z"/><path class="a" d="m104.9 716.6h53.1v0.5h-53.1z"/><path class="a" d="m175.8 716.6h46v0.5h-46z"/><path class="a" d="m383.6 706h-121.6v-0.5h121.6z"/><path fill-rule="evenodd" class="a" d="m474 590.6h-386.2c-6.3 0-11.4-5.1-11.4-11.4v-542.9c0-6.3 5.1-11.4 11.4-11.4h386.2c6.3 0 11.4 5.1 11.4 11.4v542.9c0 6.3-5.1 11.4-11.4 11.4zm-386.2-565.2c-6 0-10.9 4.9-10.9 10.9v542.9c0 6 4.9 10.9 10.9 10.9h386.2c6 0 10.9-4.9 10.9-10.9v-542.9c0-6-4.9-10.9-10.9-10.9z"/><path fill-rule="evenodd" class="a" d="m906.6 590.6h-386.2c-6.3 0-11.4-5.1-11.4-11.4v-542.9c0-6.3 5.1-11.4 11.4-11.4h386.2c6.3 0 11.4 5.1 11.4 11.4v542.9c0 6.3-5.1 11.4-11.4 11.4zm-386.2-565.2c-6 0-10.9 4.9-10.9 10.9v542.9c0 6 4.9 10.9 10.9 10.9h386.2c6 0 10.9-4.9 10.9-10.9v-542.9c0-6-4.9-10.9-10.9-10.9z"/><path class="b" d="m149.3 417.6h296.8v-313.2h-296.8z"/><path class="c" d="m136.7 417.6h303.5v-313.2h-303.5z"/><path class="b" d="m149.3 417.6h296.8v11.7h-296.8z"/><path class="c" d="m115.8 417.6h303.4v11.7h-303.4z"/><path class="d" d="m422.6 399.9v-277.9h-268.2v277.9z"/><path class="e" d="m331.2 399.9l-42.5-277.9h-48.9l42.6 277.9z"/><path class="e" d="m271.9 399.9l-42.6-277.9h-19l42.6 277.9z"/><path class="b" d="m156.6 399.9v-277.9h-2.2v277.9z"/><path class="c" d="m428.4 272.1h-279.9v-22.2h279.9z"/><path class="b" d="m546.4 679.8h34.2v-413h-34.2z"/><path class="c" d="m555.4 679.8h-9v-16.8h18.4z"/><path class="b" d="m822.6 679.8h34.1v-413h-34.1z"/><path class="c" d="m546.4 673.9h284v-407.1h-284z"/><path class="b" d="m559.9 391.5h257.1c3.6 0 6.5-2.9 6.5-6.5v-105c0-3.6-2.9-6.5-6.5-6.5h-257.1c-3.6 0-6.5 2.9-6.5 6.5v105c0 3.6 2.9 6.5 6.5 6.5z"/><path class="c" d="m821.5 679.8h8.9v-16.8h-18.3z"/><path class="b" d="m559.9 528.5h257.1c3.6 0 6.5-2.9 6.5-6.5v-105c0-3.6-2.9-6.5-6.5-6.5h-257.1c-3.6 0-6.5 2.9-6.5 6.5v105c0 3.6 2.9 6.5 6.5 6.5z"/><path class="b" d="m559.9 665.5h257.1c3.6 0 6.5-2.9 6.5-6.5v-105c0-3.5-2.9-6.4-6.5-6.4h-257.1c-3.6 0-6.5 2.9-6.5 6.4v105c0 3.6 2.9 6.5 6.5 6.5z"/><path class="c" d="m634.2 288.1h102.5c4.3 0 8.5-6.5 11.4-17.8h-125.4c3 11.3 7.1 17.8 11.5 17.8z"/><path class="c" d="m634.2 425.1h102.5c4.3 0 8.5-6.4 11.4-17.8h-125.4c3 11.4 7.1 17.8 11.5 17.8z"/><path class="c" d="m634.2 562.1h102.5c4.3 0 8.5-6.4 11.4-17.8h-125.4c3 11.4 7.1 17.8 11.5 17.8z"/><path class="b" d="m761 209.7c0 0 0.4 57.6 17.8 57.6 17.4 0 17.9-57.6 17.9-57.6z"/><path class="b" d="m573.3 210.1c0 0 1.2 57.2 44.5 57.2 43.3 0 44.5-57.2 44.5-57.2z"/><path class="c" d="m628.7 224.5c0 0 0.9 42.8 33.3 42.8 32.5 0 33.3-42.8 33.3-42.8z"/><path class="a" d="m672.1 235.9c0 0 0.6 31.4 24.4 31.4 23.8 0 24.4-31.4 24.4-31.4z"/><path class="b" d="m790.1 218.1q-0.3 0-0.7-0.1c-1.9-1-18.5-9.7-17.3-18.2 0.4-3.3 2.1-5.9 3.6-8.3 2.3-3.6 4-6.2 1.1-10.2-4.5-6 0.4-11 4.6-15.3 2.1-2.1 4.1-4.2 5.3-6.4 1.8-3.3 0.4-5.8-1.6-9.2-1.7-3-3.6-6.4-3.7-10.9-0.2-14.7 11.4-21.3 11.9-21.5 0.7-0.4 1.5-0.2 1.9 0.5 0.4 0.7 0.2 1.5-0.5 1.9-0.5 0.2-10.7 6.1-10.5 19.1 0.1 3.8 1.7 6.7 3.3 9.5 2.1 3.6 4.2 7.3 1.7 11.9-1.4 2.6-3.6 4.8-5.8 7-4.6 4.7-7.3 7.8-4.4 11.8 4 5.4 1.4 9.6-1 13.3-1.4 2.2-2.8 4.5-3.2 7.1-0.7 5.6 11.2 13 15.9 15.4 0.7 0.4 1 1.2 0.6 1.9-0.2 0.5-0.7 0.7-1.2 0.7z"/><path class="c" d="m800.2 82.3c0 0-22.3 24-7.2 39.1 27.4 0 7.2-39.1 7.2-39.1z"/><path class="c" d="m768.5 89.2c0 0 2 32.7 23.4 32.2 18.8-19.8-23.4-32.2-23.4-32.2z"/><path class="c" d="m810.1 142.3c0 0-23.1-1.5-24.6 13.5 12.2 15 24.6-13.5 24.6-13.5z"/><path class="c" d="m766.8 120.5c0 0 2.7 22.9 17.8 21.7 12.5-14.7-17.8-21.7-17.8-21.7z"/><path class="c" d="m765.6 161.9c0 0 13.6 5.9 10.1 15-11.4 4.9-10.1-15-10.1-15z"/><path class="c" d="m788.2 177.7c0 0-2.6 11.1-9.9 9.7-5.4-7.9 9.9-9.7 9.9-9.7z"/><path class="c" d="m796.8 166.5c0 0-11.6 9.5-18 2.2 0.8-12.5 18-2.2 18-2.2z"/><path class="f" d="m286.1 493.9h-141.7v185.9h141.7z"/><path class="b" d="m157.9 662.7v-151.7h2.5v151.7z"/><path class="b" d="m270.4 514.1h-112.5v-3.1h112.5z"/><path class="f" d="m430.3 493.9h-141.7v185.9h141.7z"/><path class="g" d="m430.3 493.9h14.1v185.9h-14.1z"/><path class="b" d="m302.1 662.7v-151.7h2.5v151.7z"/><path class="b" d="m286.1 679.8v-183.4h2.5v183.4z"/><path class="b" d="m414.6 514.1h-112.5v-3.1h112.5z"/><path class="g" d="m278.8 512.5c1.5 0 2.7 1.2 2.7 2.7v43.2c0 1.4-1.2 2.6-2.7 2.6-1.5 0-2.7-1.2-2.7-2.6v-43.2c0-1.5 1.2-2.7 2.7-2.7z"/><path class="g" d="m295.9 512.5c1.5 0 2.7 1.2 2.7 2.7v43.2c0 1.4-1.2 2.6-2.7 2.6-1.4 0-2.6-1.2-2.6-2.6v-43.2c0-1.5 1.2-2.7 2.6-2.7z"/><path class="a" d="m449 487.6h-309v8.8h309z"/><path class="g" d="m449 487.6h-24.7v8.8h24.7z"/><path class="f" d="m887.8 747.5c0 12.5-173.6 22.6-387.8 22.6-214.2 0-387.8-10.1-387.8-22.6 0-12.5 173.6-22.7 387.8-22.7 214.2 0 387.8 10.2 387.8 22.7z"/><path class="h" d="m890.9 140.7l-39.4-14.4 0.7-1.9 39.4 14.4z"/><path class="h" d="m841.5 122.6l-12.6-4.6 0.7-1.8 12.6 4.5z"/><path class="h" d="m705.1 78.1l208.1 76.1c11.8 4.3 17.9 17.4 13.6 29.2l-159.3 435.9c-4.3 11.8-17.4 17.9-29.2 13.6l-208.1-76.1c-11.8-4.3-17.9-17.4-13.6-29.2l159.3-435.9c4.3-11.8 17.5-17.9 29.2-13.6z"/><path class="e" d="m759.4 616l159.2-435.3c2.9-8-1.2-16.9-9.3-19.9l-210.9-77c-8-3-16.9 1.1-19.8 9.2l-159.1 435.3c-3 8.1 1.2 17 9.2 19.9l210.9 77.1c8 2.9 16.9-1.2 19.8-9.3z"/><path class="h" d="m827.4 127.8c-6 8.1-16.6 11.3-26 7.8l-4.2-1.5c-9.4-3.5-15.5-12.7-14.9-22.8z"/><path class="i" d="m753.3 613.9c2 0.7 4.2-0.3 4.9-2.3l156.3-427.6c0.7-2-0.3-4.2-2.3-4.9-1.9-0.7-4.1 0.3-4.9 2.3l-156.3 427.6c-0.7 2 0.3 4.2 2.3 4.9z"/><path class="i" d="m525.5 530.6c2 0.8 4.2-0.3 4.9-2.2l156.3-427.7c0.7-1.9-0.3-4.1-2.2-4.8-2-0.7-4.2 0.3-4.9 2.2l-156.3 427.7c-0.7 1.9 0.3 4.1 2.2 4.8z"/><g style="opacity:.9"><path class="e" d="m749.3 580.5l64.3-416.1c1.6-10.2-5.4-19.8-15.6-21.4l-197.1-30.4c-10.3-1.6-19.8 5.4-21.4 15.6l-64.3 416.1c-1.6 10.2 5.4 19.7 15.6 21.3l197.2 30.5c10.2 1.6 19.7-5.4 21.3-15.6z"/><path fill-rule="evenodd" class="h" d="m730.8 597.3q-1.5 0-3-0.2l-197.1-30.5c-10.7-1.7-18.1-11.7-16.5-22.5l64.3-416.1c0.8-5.2 3.6-9.7 7.9-12.8 4.2-3.2 9.4-4.4 14.6-3.6l197.1 30.4c5.2 0.8 9.8 3.6 12.9 7.9 3.1 4.2 4.4 9.4 3.6 14.6l-64.3 416.1c-1.5 9.7-9.9 16.7-19.5 16.7zm-132.8-484c-3.8 0-7.4 1.2-10.5 3.5-3.8 2.8-6.3 6.9-7 11.5l-64.3 416.1c-0.7 4.7 0.4 9.4 3.2 13.2 2.8 3.8 6.9 6.3 11.6 7l197.1 30.5c9.6 1.5 18.7-5.2 20.2-14.8l64.3-416.1c0.7-4.7-0.4-9.3-3.2-13.1-2.8-3.9-6.9-6.4-11.6-7.1l-197.1-30.4q-1.4-0.3-2.7-0.3z"/><path fill-rule="evenodd" class="h" d="m766.5 307.3q-1.4 0-2.9-0.2l-179.5-27.8c-5-0.7-9.5-3.4-12.5-7.6-3-4.1-4.2-9.1-3.5-14.2l13.2-85c0.8-5.1 3.5-9.5 7.6-12.5 4.1-3.1 9.2-4.3 14.2-3.5l179.5 27.7c10.4 1.6 17.5 11.4 15.9 21.8l-13.1 85.1c-0.8 5-3.5 9.5-7.6 12.5-3.3 2.4-7.2 3.7-11.3 3.7zm-166.4-149c-3.6 0-7.1 1.1-10 3.3-3.7 2.7-6.1 6.6-6.8 11.2l-13.2 85c-0.7 4.6 0.4 9.1 3.1 12.8 2.7 3.6 6.7 6.1 11.2 6.8l179.5 27.7c4.5 0.7 9-0.4 12.7-3.1 3.7-2.7 6.1-6.7 6.8-11.2l13.2-85.1c1.4-9.3-5-18.1-14.3-19.5l-179.5-27.7q-1.3-0.2-2.7-0.2z"/><path fill-rule="evenodd" class="h" d="m742.6 436.6q-1.8 0-3.6-0.3l-170.5-26.3c-12.9-2-21.7-14.1-19.7-27 1.9-12.9 14.1-21.8 26.9-19.8l170.5 26.4c6.3 0.9 11.8 4.3 15.5 9.4 3.7 5.1 5.3 11.3 4.3 17.6-1.8 11.6-11.9 20-23.4 20zm-170.5-71.7c-10.5 0-19.7 7.7-21.4 18.4-1.8 11.8 6.3 22.9 18.1 24.7l170.5 26.4c11.8 1.8 22.9-6.3 24.7-18.1 0.9-5.8-0.5-11.5-3.9-16.1-3.4-4.7-8.5-7.8-14.2-8.6l-170.5-26.4q-1.6-0.3-3.3-0.3z"/><path fill-rule="evenodd" class="h" d="m734 492.6q-1.8 0-3.7-0.2l-170.4-26.4c-12.9-2-21.8-14.1-19.8-27 1-6.2 4.3-11.7 9.4-15.5 5.1-3.7 11.3-5.2 17.6-4.2l170.5 26.3c12.9 2 21.7 14.1 19.7 27-1.8 11.7-11.9 20-23.3 20zm-170.6-71.6c-4.5 0-9 1.4-12.7 4.2-4.7 3.4-7.7 8.4-8.6 14.1-1.9 11.8 6.3 22.9 18.1 24.7l170.5 26.4c11.8 1.8 22.8-6.3 24.7-18.1 1.8-11.8-6.3-22.9-18.1-24.7l-170.5-26.4q-1.7-0.2-3.4-0.2z"/><path fill-rule="evenodd" class="h" d="m725.4 548.7q-1.9 0-3.7-0.3l-170.5-26.4c-12.9-1.9-21.8-14.1-19.8-26.9 2-12.9 14.1-21.8 27-19.8l170.5 26.3c6.3 1 11.8 4.3 15.5 9.4 3.7 5.1 5.2 11.4 4.3 17.6l-1-0.1 1 0.1c-1 6.3-4.3 11.8-9.4 15.5-4.1 3-9 4.6-13.9 4.6zm-170.6-71.7c-10.5 0-19.7 7.7-21.4 18.4-1.8 11.8 6.3 22.8 18.1 24.7l170.5 26.3c5.7 0.9 11.4-0.5 16.1-3.9 4.7-3.4 7.7-8.5 8.6-14.2 0.9-5.7-0.5-11.4-3.9-16.1-3.4-4.7-8.5-7.7-14.2-8.6l-170.5-26.3q-1.7-0.3-3.3-0.3z"/><path fill-rule="evenodd" class="j" d="m755.5 348.5q-0.6 0-1.3-0.1l-85.3-13.2c-2.2-0.3-4.1-1.5-5.4-3.3-1.3-1.8-1.9-4-1.5-6.2 0.7-4.5 4.9-7.6 9.5-6.9l85.3 13.2c2.2 0.3 4.1 1.5 5.4 3.3 1.3 1.8 1.9 4 1.5 6.2-0.6 4.1-4.2 7-8.2 7zm-85.3-27.8c-3.1 0-5.8 2.2-6.3 5.3-0.2 1.7 0.2 3.4 1.2 4.8 1 1.3 2.5 2.2 4.1 2.5l85.3 13.2c1.7 0.2 3.4-0.2 4.7-1.2 1.4-1 2.3-2.5 2.5-4.1 0.3-1.7-0.1-3.4-1.1-4.8-1-1.3-2.5-2.2-4.1-2.5l-85.3-13.2q-0.5 0-1 0z"/><path fill-rule="evenodd" class="j" d="m751.8 372.6q-0.7 0-1.3-0.1l-121.2-18.7c-2.2-0.3-4.1-1.5-5.4-3.3-1.4-1.8-1.9-4-1.6-6.2 0.4-2.2 1.6-4.1 3.4-5.4 1.7-1.4 4-1.9 6.2-1.6l121.1 18.8c4.6 0.7 7.7 4.9 7 9.5-0.6 4.1-4.2 7-8.2 7zm-121.2-33.4c-1.4 0-2.7 0.5-3.8 1.3-1.3 1-2.2 2.4-2.5 4.1-0.2 1.7 0.2 3.4 1.2 4.7 1 1.4 2.4 2.3 4.1 2.5l121.2 18.8c3.4 0.5 6.7-1.9 7.2-5.3 0.6-3.5-1.8-6.7-5.3-7.3l-121.2-18.7q-0.4-0.1-0.9-0.1z"/><path class="h" d="m590.6 217.4c-2.3 15 7.9 28.9 22.8 31.2 15 2.3 28.9-7.9 31.2-22.8 2.3-14.9-7.9-28.9-22.8-31.2-14.9-2.3-28.9 7.9-31.2 22.8z"/></g><g style="opacity:.9"><path class="h" d="m598.7 590.6l11.3-420.9c0.2-10.3-7.9-18.9-18.2-19.1l-199.4-5.4c-10.3-0.3-18.9 7.9-19.2 18.2l-11.3 420.9c-0.3 10.3 7.9 18.9 18.2 19.2l199.4 5.3c10.3 0.3 18.9-7.9 19.2-18.2z"/><path class="k" d="m598.7 590.6l11.3-420.9c0.2-10.3-7.9-18.9-18.2-19.1l-199.4-5.4c-10.3-0.3-18.9 7.9-19.2 18.2l-11.3 420.9c-0.3 10.3 7.9 18.9 18.2 19.2l199.4 5.3c10.3 0.3 18.9-7.9 19.2-18.2z"/><path class="l" d="m591.8 491.6l2.3-86.1c0.3-10-7.6-18.3-17.6-18.6l-181.5-4.8c-10-0.3-18.4 7.6-18.6 17.6l-2.3 86c-0.3 10 7.6 18.4 17.6 18.6l181.5 4.9c10 0.3 18.3-7.6 18.6-17.6z"/><path class="e" d="m527.6 560.2c-0.4 13 9.9 23.8 22.8 24.1 13 0.4 23.8-9.8 24.1-22.8 0.4-13-9.9-23.7-22.8-24.1-13-0.3-23.8 9.9-24.1 22.8z"/><path class="e" d="m387.6 556.5c-0.4 12.9 9.9 23.7 22.8 24.1 13 0.3 23.8-9.9 24.1-22.9 0.4-12.9-9.9-23.7-22.8-24.1-13-0.3-23.8 9.9-24.1 22.9z"/><path class="e" d="m457.6 558.4c-0.4 12.9 9.9 23.7 22.8 24 13 0.4 23.8-9.8 24.1-22.8 0.4-12.9-9.9-23.7-22.8-24.1-13-0.3-23.8 9.9-24.1 22.9z"/><path class="e" d="m599.2 217.5c0.3-12.5-9.6-22.9-22.1-23.3l-172.4-4.6c-12.5-0.3-22.9 9.5-23.3 22-0.3 12.6 9.6 23 22.1 23.3l172.4 4.6c12.5 0.4 22.9-9.5 23.3-22z"/><path class="e" d="m597.5 278.4c0.4-12.5-9.5-22.9-22-23.2l-172.4-4.7c-12.6-0.3-23 9.6-23.3 22.1-0.3 12.5 9.5 22.9 22 23.2l172.5 4.7c12.5 0.3 22.9-9.6 23.2-22.1z"/><path class="e" d="m595.9 339.3c0.3-12.5-9.5-22.9-22-23.2l-172.5-4.7c-12.5-0.3-22.9 9.6-23.2 22.1-0.4 12.5 9.5 22.9 22 23.3l172.4 4.6c12.6 0.3 23-9.6 23.3-22.1z"/></g><path class="j" d="m227.4 241.3l-2.4 2.7-2.5 2.9-4.9 5.9c-3.2 4-6.4 8-9.3 12.2-5.9 8.2-11.1 16.8-14.6 25.3q-1.3 3.2-2.2 6.3c-0.5 1.8-0.9 3.7-1.1 5.8-0.5 4.3-0.5 9.1-0.2 14.1 0.7 9.9 2.6 20.6 4.6 30.8l-13 5.2c-3-5.1-5.4-10.2-7.7-15.6-2.2-5.3-4.1-10.9-5.6-16.7-1.5-5.8-2.5-11.9-2.7-18.6-0.1-3.3 0.1-6.9 0.8-10.5q0.9-4.9 2.4-9.5c3.9-12.1 9.6-22.6 16.1-32.5 3.2-4.9 6.6-9.6 10.3-14.1q2.7-3.5 5.5-6.7 1.5-1.7 3-3.3c1-1.1 1.9-2.1 3.2-3.4z"/><path class="m" d="m197 347.5l5.4 4.9-18.9 9.9c0 0-1.3-2-2.1-5-1.4-5.2 2.1-10.7 7.4-11.9 3-0.7 6 0.1 8.2 2.1z"/><path class="m" d="m209.7 364.7l-16 7.5-10.2-9.9 18.9-9.9z"/><path class="j" d="m279 168c-0.1 1.4 0.6 2.5 1.4 2.5 0.9 0 1.7-1.1 1.7-2.4 0.1-1.3-0.5-2.4-1.4-2.4-0.8-0.1-1.6 1-1.7 2.3z"/><path class="n" d="m279.4 170.4c0 0 2.6 7.8 5.7 11.6-2.5 2.1-6.4 1-6.4 1z"/><path class="j" d="m274.6 160.5q0.3 0.1 0.6-0.1c2.9-1.9 5.5-0.9 5.6-0.9 0.4 0.2 0.9 0 1.1-0.4 0.1-0.4 0-0.9-0.4-1-0.2-0.1-3.5-1.4-7.1 1-0.4 0.3-0.5 0.8-0.3 1.1q0.2 0.3 0.5 0.3z"/><path class="m" d="m240.5 173.1c1.6 12.3 2.2 37.1-6.8 44 0 0 2.9 10 25.3 12.8 24.7 3.1 12.6-10.7 12.6-10.7-13.2-4.8-12.3-14.7-9.3-23.7z"/><path fill-rule="evenodd" class="h" d="m173.8 709.4c-0.1-0.1-0.1-0.2-0.1-0.4 0.1-0.1 0.2-0.2 0.4-0.2 0.2 0 5.7-0.4 7.4 1.3q0.6 0.6 0.6 1.5c-0.1 1-0.6 1.4-1 1.6q-0.1 0-0.2 0c-2 0.6-5.9-2.6-7.1-3.8zm7 3c0.1 0 0.4-0.1 0.5-0.9q0-0.4-0.3-0.8c-1-1-4.1-1.2-6-1.2 1.9 1.6 4.7 3.4 5.8 2.9z"/><path fill-rule="evenodd" class="h" d="m174 709.6q-0.2-0.1-0.3-0.3-0.1-0.2 0.1-0.4c0.1-0.1 3-4 5.5-4.4q1-0.1 1.7 0.5c0.7 0.5 0.6 1.2 0.4 1.5-0.4 1.1-2.6 2.1-4.5 2.6-1.1 0.3-2.2 0.5-2.9 0.5zm0.9-0.9c2.1-0.2 5.4-1.5 5.8-2.5 0.1-0.1 0.2-0.3-0.2-0.6q-0.5-0.4-1.1-0.3-0.2 0-0.3 0.1c-1.5 0.4-3.3 2.3-4.2 3.3z"/><path fill-rule="evenodd" class="h" d="m276.5 731c-0.1 0-0.2-0.1-0.3-0.3 0-0.2 0.1-0.3 0.3-0.4 0.2-0.2 6.1-3.4 8.8-2.7q0.9 0.2 1.2 0.9c0.5 0.8 0.2 1.4 0 1.7-0.7 1-2.8 1.3-4.9 1.3-2 0-4-0.3-5.1-0.5zm1.3-0.6c3.1 0.5 7.3 0.4 8.1-0.6 0.1-0.2 0.2-0.4-0.1-0.9q-0.2-0.4-0.7-0.5-0.4-0.1-0.8-0.1c-1.9 0-4.9 1.3-6.5 2.1z"/><path fill-rule="evenodd" class="h" d="m276.4 730.9q-0.2-0.1-0.2-0.3c0.1-0.2 0.7-4.6 2.9-6.4q1-0.7 2.2-0.6c1 0.1 1.3 0.6 1.4 1.1 0.2 1.8-3.9 5.4-5.9 6.3q-0.1 0-0.2 0-0.1 0-0.2-0.1zm3.1-6.1c-1.4 1.2-2.1 3.8-2.3 5.1 2-1.2 4.8-4 4.7-5.1 0-0.1 0-0.4-0.7-0.5q-0.2 0-0.3 0-0.7 0-1.4 0.5z"/><path class="m" d="m258.5 730.6h16.5l3.2-38.2h-16.5z"/><path class="m" d="m155.5 708.6l15.7 3 14.5-37.3-15.7-3.1z"/><path class="j" d="m174.1 706.9l-15.5-9.5c-0.6-0.4-1.3-0.3-1.8 0.2l-10.8 10.9c-1.1 1.2-0.9 3 0.4 3.8 5.5 3.2 8.3 4.5 15.2 8.7 4.2 2.6 12.8 9.5 19.1 12.2 6.1 2.7 10-3.2 7.7-4.9-10.3-7.5-11.2-13.9-12.6-19.2-0.3-0.9-0.9-1.7-1.7-2.2z"/><path class="j" d="m275 728.7h-18.1c-0.6 0-1.2 0.5-1.4 1.1l-3.9 14.7c-0.4 1.5 0.7 3 2.3 2.9 6.5-0.1 15.9-0.4 24.1-0.4 9.5 0 11.1 0.5 22.3 0.5 6.8 0 8.9-6.9 6.1-7.5-12.8-2.8-16.6-3.1-27.5-10-1.2-0.7-2.5-1.3-3.9-1.3z"/><path class="j" d="m298.7 274.3c-0.2 5.6-0.6 11.8-1.2 18.6-1.6 18.5-4.5 41.5-9.5 70.2h-88.3c0-12.5 9.5-70 2.7-129.1-1-8.1 5-15.7 13.3-16.8 4.4-0.6 9.5-1.1 14.4-1.3 11.3-0.5 27.6-0.9 37.5 0 6 0.6 11.8 1.6 16.3 2.5 6.4 1.3 11.3 6.2 12.6 12.6 1.7 7.9 3.1 21.3 2.2 43.3z"/><path class="o" d="m280.8 363.4q0 0 0 0c-0.2-0.1-0.2-0.2-0.2-0.3 4.6-26.4 7.8-50 9.5-70.2 0.6-6.5 1-12.7 1.2-18.6 1-22.8-0.7-36.1-2.2-43.2 0-0.2 0.1-0.3 0.2-0.3 0.2-0.1 0.3 0 0.3 0.2 2.2 10.3 3 25.3 2.2 43.3-0.2 5.9-0.6 12.2-1.2 18.6-1.7 20.2-4.9 43.8-9.5 70.2-0.1 0.2-0.2 0.3-0.3 0.3z"/><path class="p" d="m283.1 260.8c-0.2 12.5 6.2 40.5 12.2 53.3 0.9-7.7 1.7-14.7 2.2-21.2q0.7-8.3 1.1-15.4z"/><path class="m" d="m355 291.3l14.7-8.7 2.7 20.1c0 0-11.7 3.3-18.2-0.7z"/><path class="m" d="m389.1 284l-4.9 16.1-11.8 2.6-2.7-20.1z"/><path class="j" d="m294.2 227c0.8 1.8 1.3 3.1 1.8 4.4 0.5 1.3 1 2.6 1.4 3.8l2.6 7.3c1.6 4.7 3.3 9.4 5 14 1.7 4.7 3.4 9.2 5.3 13.5 1.9 4.3 3.9 8.5 6 11.9 1.1 1.7 2.1 3.2 3 4.3 0.4 0.5 0.8 0.8 1 1 0 0.1 0.1 0.2 0 0.2-0.1-0.1 0 0 0.1 0.1l0.3 0.1c0.9 0.5 2.4 1 4.1 1.4 1.8 0.3 3.8 0.5 5.9 0.6 8.6 0.2 18.7-1.3 28.2-2.8l0.4-0.1c3.9-0.6 7.5 2.1 8.2 5.9 0.4 2.9-1 5.7-3.3 7.1-2.5 1.6-4.8 2.9-7.3 4.2q-3.7 1.9-7.6 3.4c-5.2 2.1-10.6 3.9-16.6 4.9-3 0.6-6.1 0.8-9.5 0.8-3.4 0-7-0.3-11-1.5l-1.5-0.5c-0.5-0.2-1-0.4-1.6-0.7-1.3-0.6-2.3-1.2-3.3-1.8-2-1.3-3.5-2.6-4.9-3.9-2.8-2.6-4.9-5.2-6.7-7.8-7.1-10.2-11.4-20-15.6-30q-3-7.5-5.6-14.9l-2.5-7.3-1.2-3.5c-0.3-1.1-0.8-2.2-1-2.8l-0.1-0.4c-2.9-7.3 0.7-15.5 8-18.3 7-2.8 15 0.6 18 7.4z"/><path class="p" d="m278.2 692.4l-1.7 19.7h-16.5l1.7-19.7z"/><path class="p" d="m170 671.2l15.7 3.1-7.5 19.2-15.7-3z"/><path class="m" d="m234.8 164.3c0 16.3-0.8 26 6.9 34.5 11.7 12.9 32.3 5.8 37.2-10.4 4.4-14.6 3.6-38.9-11.9-45.8-15.4-6.7-32.2 5.3-32.2 21.7z"/><path class="j" d="m271.8 172.5c1.4-3.8 7-20.3-3.4-25.5-10.3-5.2-24-6.8-32.4-3.1-8.4 3.7-14.6 17.1-14.6 17.1 0 0 3.9 28.3 20.5 33.3 16.5 5.1 35.1-14.5 29.9-21.8z"/><path class="j" d="m267.8 149.1c2.3-0.5 5-2.5 5-2.5 5.9-5.9-4.7-9.8-15.2-10.7-11.9-1.1-28.9 3.7-35.7 12.4 6.4 3.3 36.8 3.5 45.9 0.8z"/><path class="j" d="m266.8 147.5c2 0.1 4.7-0.9 4.7-0.9 8-3.9-1.2-9.2-9.5-12.7-9.3-4-24.3-4.5-32.1 1 4.3 4.4 28.8 12.4 36.9 12.6z"/><path class="m" d="m264.6 170.2c0 3.9 1.5 7.5 3.5 9.9 3 3.7 6.5 1.6 7.3-2.7 0.8-3.9 0.2-10.5-3.6-12.5-3.7-2.1-7.1 0.9-7.2 5.3z"/><path class="h" d="m256.7 363.1c0 0 2.7 124.9-13.9 170.9-26.4 72.9-55 157.6-55 157.6l-30.1-6.7c0 0 24.2-92.1 37.5-153.6 11.9-55.1 2.7-123.1 4.5-168.2 20.6 0 57 0 57 0z"/><g style="opacity:.3"><path class="e" d="m256.7 363.1c0 0 2.7 124.9-13.9 170.9-26.4 72.9-55 157.6-55 157.6l-30.1-6.7c0 0 24.2-92.1 37.5-153.6 11.9-55.1 2.7-123.1 4.5-168.2 20.6 0 57 0 57 0z"/></g><path class="p" d="m256.8 390.9c-8.2-2.4-14.8-1.5-16.7 5.9-5.2 19.4 5.9 70.4 11.5 93.7 4.1-33.4 5.1-73.4 5.2-99.6z"/><path class="h" d="m196 682.4c0.1 0-7.5 9.8-7.5 9.8l-32.9-7.3 3.8-11.3z"/><path class="h" d="m288 363.1c0 0 18.3 104.9 18 155.2-0.3 56.5-23.2 190-23.2 190h-27.9c0 0 3.5-134.2 4.4-185.6 0.9-56.1-29.3-159.6-29.3-159.6z"/><g style="opacity:.3"><path class="e" d="m288 363.1c0 0 18.3 104.9 18 155.2-0.3 56.5-23.2 190-23.2 190h-27.9c0 0 3.5-134.2 4.4-185.6 0.9-56.1-29.3-159.6-29.3-159.6z"/></g><path class="h" d="m288.7 697.2c0.1 0-2.1 11.6-2.1 11.6h-34l-0.5-10.4z"/><path fill-rule="evenodd" class="e" d="m256.5 398.9q-0.1 0-0.2-0.1l-11.7-6.8q-0.2-0.2-0.2-0.4l-2.4-18.6q0-0.2 0.1-0.4 0.2-0.2 0.4-0.2h22.3c0.3 0 0.5 0.2 0.5 0.5l2.2 18.1c0 0.2-0.1 0.4-0.2 0.5l-10.5 7.3q-0.1 0.1-0.3 0.1zm-11.1-7.7l11.1 6.6 9.9-7-2-17.4h-21.3z"/></svg>