<svg version="1.2" xmlns="http://www.w3.org/2000/svg" viewBox="0 0 902 651" width="554" height="400"><style>.a{opacity:.5;mix-blend-mode:soft-light;fill:#fefefe}.b{fill:none;stroke:#fefefe;stroke-linecap:round;stroke-linejoin:round;stroke-width:2.9}.c{fill:none;stroke:#3d4368;stroke-linecap:round;stroke-linejoin:round;stroke-width:2.9;stroke-dasharray:3.8336200000000002,5.75042}.d{fill:none;stroke:#3d4368;stroke-linecap:round;stroke-linejoin:round;stroke-width:2.9;stroke-dasharray:3.8336200000000002,5.75044}.e{fill:#e6e7e8}.f{fill:none;stroke:#3a3f63;stroke-linecap:round;stroke-linejoin:round;stroke-width:3.9}.g{fill:#dde6eb}.h{fill:#8bbfe7}.i{fill:#a5c8da}.j{fill:#41486e}.k{fill:#acbbc4}.l{fill:#8bbfe7;stroke:#3a3f63;stroke-linecap:round;stroke-linejoin:round;stroke-width:3.9}.m{fill:#cccdcf}.n{fill:none;stroke:#3a3f63;stroke-linecap:round;stroke-linejoin:round;stroke-width:2.8}.o{fill:#cbd9e2}.p{fill:#ee5282}.q{fill:#dfcfd8}.r{fill:#8bbfe7;stroke:#3a3f63;stroke-linecap:round;stroke-linejoin:round;stroke-width:2.8}.s{fill:#fefefe}.t{fill:none;stroke:#3d4368;stroke-linecap:round;stroke-linejoin:round;stroke-width:3.9}.u{fill:#3a3f63}</style><path class="a" d="m543.8 244.4c0 119.1-96.6 215.6-215.6 215.6-119.1 0-215.6-96.5-215.6-215.6 0-119 96.5-215.6 215.6-215.6 119 0 215.6 96.6 215.6 215.6z"/><path class="a" d="m772.7 410.8c0 119.1-96.6 215.6-215.6 215.6-119.1 0-215.6-96.5-215.6-215.6 0-119.1 96.5-215.6 215.6-215.6 119 0 215.6 96.5 215.6 215.6z"/><path class="b" d="m199.3 91.2l6.8 12.1"/><path class="b" d="m212.2 114.1l6.7 12.1"/><path class="b" d="m192.7 117.9l12-6.7"/><path class="b" d="m213.5 106.3l12-6.8"/><path class="b" d="m669 55.3l6.8 12.1"/><path class="b" d="m681.9 78.3l6.7 12"/><path class="b" d="m662.4 82l12-6.7"/><path class="b" d="m683.2 70.4l12-6.8"/><path class="b" d="m792.4 141l6.8 12"/><path class="b" d="m805.3 163.9l6.7 12.1"/><path class="b" d="m785.8 167.7l12-6.8"/><path class="b" d="m806.6 156l12-6.7"/><path class="b" d="m498.7 574.3l6.7 12.1"/><path class="b" d="m511.5 597.3l6.7 12"/><path class="b" d="m492 601l12.1-6.7"/><path class="b" d="m512.8 589.4l12.1-6.8"/><path class="b" d="m127.5 469.4l4.1 7.3"/><path class="b" d="m135.3 483.4l4.1 7.3"/><path class="b" d="m123.4 485.7l7.4-4.2"/><path class="b" d="m136.1 478.6l7.4-4.2"/><path class="b" d="m434.2 24.1l4.1 7.4"/><path class="b" d="m442 38.1l4.1 7.4"/><path class="b" d="m430.1 40.4l7.4-4.1"/><path class="b" d="m442.8 33.3l7.4-4.1"/><path class="b" d="m362.7 607.5l4.1 7.3"/><path class="b" d="m370.6 621.5l4.1 7.3"/><path class="b" d="m358.7 623.8l7.3-4.2"/><path class="b" d="m371.4 616.7l7.3-4.2"/><path class="c" d="m798.6 512.8c0 40.4-32.8 73.2-73.2 73.2-40.5 0-73.2-32.8-73.2-73.2 0-40.5 32.7-73.3 73.2-73.3 40.4 0 73.2 32.8 73.2 73.3z"/><path class="c" d="m216.8 209.7c0 40.5-32.7 73.3-73.2 73.3-40.4 0-73.2-32.8-73.2-73.3 0-40.4 32.8-73.2 73.2-73.2 40.5 0 73.2 32.8 73.2 73.2z"/><path class="d" d="m652.9 134.3c0 40.4-32.8 73.2-73.3 73.2-40.4 0-73.2-32.8-73.2-73.2 0-40.4 32.8-73.2 73.2-73.2 40.5 0 73.3 32.8 73.3 73.2z"/><path class="e" d="m439.6 463.8l-263.3 53.4-67.7-334.1 228.7-46.4 41.8 28.5z"/><path class="f" d="m439.6 463.8l-263.3 53.4-67.7-334.1 228.7-46.4 41.8 28.5z"/><g style="mix-blend-mode:multiply"><path class="g" d="m363.5 154.8c1.1 5.5 46 221.2 49.7 240.3 1.7 9.2 9.4 42.6 8.2 50.1-0.8 4.6-3 7.7-7.3 9.3-6.7 2.5-167.4 34.8-240.4 49.6l2.6 13.1 263.3-53.4-60.5-298.6z"/></g><path class="h" d="m390 341.2l-215.8 43.7-2.8-13.8 215.8-43.8z"/><path class="f" d="m390 341.2l-215.8 43.7-2.8-13.8 215.8-43.8z"/><path class="h" d="m396.4 372.8l-215.8 43.8-2.8-13.8 215.8-43.8z"/><path class="f" d="m396.4 372.8l-215.8 43.8-2.8-13.8 215.8-43.8z"/><path class="h" d="m402.9 404.5l-215.9 43.7-2.8-13.8 215.9-43.8z"/><path class="f" d="m402.9 404.5l-215.9 43.7-2.8-13.8 215.9-43.8z"/><path class="h" d="m409.3 436.1l-215.8 43.8-2.8-13.8 215.8-43.8z"/><path class="f" d="m409.3 436.1l-215.8 43.8-2.8-13.8 215.8-43.8z"/><g style="mix-blend-mode:multiply"><path class="i" d="m173 378.8l1.2 6.1 215.8-43.7-1.2-6.2z"/><path class="i" d="m179.4 410.6l1.2 6 215.8-43.8-1.2-5.9z"/><path class="i" d="m185.7 441.7l1.3 6.5 215.9-43.7-1.4-6.6z"/><path class="i" d="m192 472.8l1.5 7.1 215.8-43.8-1.5-7.1z"/></g><path class="f" d="m382.3 311.8l-212.4 43-16.5-81.3 212.4-43.1z"/><path class="f" d="m233.2 266.9l14.3 70.6"/><path class="j" d="m369.4 248.1l-212.5 43.1-3.7-18.4 212.5-43.1z"/><path class="f" d="m369.4 248.1l-212.5 43.1-3.7-18.4 212.5-43.1z"/><g style="mix-blend-mode:multiply"><path class="k" d="m155 281.8l1.9 9.4 212.5-43.1-1.9-9.4z"/></g><path class="j" d="m229.1 237.1l-68.8 13.9-0.7-3.4 68.8-14z"/><path class="j" d="m221.6 200.4l-68.7 13.9-0.7-3.4 68.7-14z"/><path fill-rule="evenodd" class="j" d="m202.3 234c0.7 1.1 0.4 2.6-0.7 3.4-1.1 0.7-2.6 0.4-3.4-0.7l-4.9-7.4-11.3 2.3-1.7 8.7c-0.2 1-0.9 1.8-1.9 2q-0.4 0.1-0.9 0c-1.3-0.3-2.2-1.5-1.9-2.9l1.9-10.3q0 0 0 0l3.2-16.9c0.2-0.9 1-1.7 2-1.9l1.7-0.3c0.9-0.2 1.9 0.2 2.5 1l9.5 14.3zm-11.9-9.1l-5.5-8.3-1.9 9.8z"/><path class="j" d="m220.6 203c-1.2-0.6-2.7 0-3.2 1.2l-5.4 11.5-8.7-8.6c-1-0.9-2.5-0.9-3.4 0-1 1-1 2.5 0 3.5l10 9.8-6 12.9c-0.5 1.2 0 2.6 1.2 3.2 0.5 0.2 1 0.3 1.5 0.2 0.8-0.2 1.4-0.7 1.7-1.4l5.3-11.3 8.6 8.4c0.5 0.6 1.4 0.8 2.1 0.7 0.5-0.1 0.9-0.3 1.3-0.7 0.9-1 0.9-2.5 0-3.4l-9.9-9.7 6.1-13.1c0.5-1.2 0-2.6-1.2-3.2z"/><path class="j" d="m173.5 217.4c1.3-0.3 2.2-1.6 1.9-2.9-0.3-1.3-1.6-2.2-2.9-1.9l-16.5 3.4c-1.3 0.2-2.2 1.5-1.9 2.8 0.2 1.3 1.5 2.2 2.8 1.9l5.9-1.2 4.5 22.2c0.3 1.3 1.6 2.1 2.9 1.8 1.3-0.2 2.2-1.5 1.9-2.8l-4.5-22.1z"/><path class="l" d="m346.3 208.3l-104.1 21.1-4.8-23.3 104.2-21.1z"/><g style="mix-blend-mode:multiply"><path class="i" d="m240.1 219.4l2.1 10 104.1-21.1-2-10.1z"/></g><path class="m" d="m337 136.6l7.2 35.6 34.9-7z"/><path class="f" d="m337 136.6l7.2 35.6 34.9-7z"/><path class="e" d="m598.9 448.4h-268.7v-340.9h233.4l35.3 36.3z"/><path class="f" d="m598.9 448.4h-268.7v-340.9h233.4l35.3 36.3z"/><g style="mix-blend-mode:multiply"><path class="g" d="m585.7 130.4c-0.1 5.7 1.1 226 0.9 245.4-0.1 9.4 0.8 43.7-1.9 50.8-1.6 4.3-4.4 6.9-9 7.6-7 1.1-170.9 0.8-245.5 0.9v13.3h268.7v-304.6z"/></g><path class="m" d="m563.4 107.4l-0.1 36.3 35.6 0.1z"/><path class="f" d="m563.4 107.4l-0.1 36.3 35.6 0.1z"/><path class="h" d="m570.8 218.7h-214.9v-14.1h214.9z"/><path class="f" d="m570.8 218.7h-214.9v-14.1h214.9z"/><g style="mix-blend-mode:multiply"><path class="i" d="m355.9 212.4v6.3h214.9v-6.3z"/></g><path class="h" d="m570.8 242.6h-214.9v-14.1h214.9z"/><path class="f" d="m570.8 242.6h-214.9v-14.1h214.9z"/><g style="mix-blend-mode:multiply"><path class="i" d="m355.9 236.5v6.1h214.9v-6.1z"/></g><path class="f" d="m571.7 421.6h-216.6v-158.3h216.6z"/><path class="f" d="m434.5 272.7v149.1"/><path class="j" d="m571.8 281.3h-216.8v-18.8h216.8z"/><path class="f" d="m571.8 281.3h-216.8v-18.8h216.8z"/><g style="mix-blend-mode:multiply"><path class="k" d="m355 271.7v9.6h216.8v-9.6z"/></g><path class="f" d="m355.4 325.4h215.7"/><path class="f" d="m355.4 370.1h215.7"/><path class="l" d="m559.6 179h-106.3v-23.8h106.3z"/><g style="mix-blend-mode:multiply"><path class="i" d="m453.3 167.2v11.8h106.3v-11.8z"/></g><path class="j" d="m437.4 187.6h-70.2v-3.6h70.2z"/><path class="j" d="m437.4 150.1h-70.2v-3.5h70.2z"/><path fill-rule="evenodd" class="j" d="m411 179.2c0.5 1.2 0 2.6-1.3 3.1-1.2 0.5-2.7-0.1-3.2-1.3l-3.3-8.2h-11.6l-3.3 8.2c-0.4 0.9-1.3 1.5-2.3 1.5q-0.4 0-0.9-0.2c-1.2-0.5-1.8-1.9-1.3-3.1l4-9.8q0 0 0 0l6.5-15.9c0.4-0.9 1.2-1.5 2.2-1.5h1.8c1 0 1.9 0.6 2.2 1.5l6.5 15.9zm-9.8-11.2l-3.8-9.2-3.8 9.2z"/><path class="j" d="m435.2 152.4c-1.1-0.8-2.6-0.6-3.4 0.5l-7.5 10.3-6.9-10.2c-0.8-1.1-2.3-1.4-3.4-0.7-1.1 0.8-1.4 2.3-0.6 3.4l7.8 11.6-8.4 11.5c-0.8 1-0.5 2.6 0.6 3.4 0.4 0.3 0.9 0.4 1.4 0.4 0.7 0 1.5-0.3 2-1l7.3-10 6.8 10c0.4 0.6 1.2 1 2 1q0.7 0 1.3-0.4c1.1-0.7 1.4-2.3 0.7-3.4l-7.7-11.4 8.5-11.6c0.8-1.1 0.6-2.6-0.5-3.4z"/><path class="j" d="m386.2 157.1c1.3 0 2.4-1.1 2.4-2.4 0-1.4-1.1-2.4-2.4-2.4h-16.9c-1.4 0-2.5 1-2.5 2.4 0 1.3 1.1 2.4 2.5 2.4h6v22.6c0 1.3 1.1 2.4 2.4 2.4 1.4 0 2.4-1.1 2.4-2.4v-22.6z"/><path class="e" d="m741.6 535.4l-263.7-51.3 65-334.6 229.1 44.5 27.7 42.4z"/><path class="f" d="m741.6 535.4l-263.7-51.3 65-334.6 229.1 44.5 27.7 42.4z"/><g style="mix-blend-mode:multiply"><path class="g" d="m789.3 220.8c-1.1 5.5-42 222-45.9 241-1.9 9.2-7.6 43-11.6 49.5-2.4 3.9-5.6 5.9-10.3 5.7-7.1-0.2-167.9-31.7-241.1-45.9l-2.5 13 263.7 51.3 58.1-299z"/></g><path fill-rule="evenodd" class="j" d="m611.5 233.6c0.3 1.3-0.6 2.6-1.9 2.9-1.3 0.2-2.6-0.6-2.8-1.9l-1.8-8.7-11.3-2.2-4.9 7.4c-0.5 0.8-1.5 1.2-2.5 1q-0.4-0.1-0.8-0.3c-1.1-0.8-1.5-2.3-0.7-3.4l5.7-8.8q0 0 0.1 0l9.4-14.3c0.5-0.9 1.5-1.3 2.5-1.1l1.7 0.4c1 0.1 1.7 0.9 1.9 1.9l3.4 16.8q0 0 0 0zm-7.6-12.9l-1.9-9.8-5.5 8.4z"/><path class="j" d="m640.3 211.9c-0.9-0.9-2.4-1-3.4-0.1l-9.3 8.6-4.8-11.3c-0.6-1.2-2-1.8-3.2-1.2-1.3 0.5-1.8 1.9-1.3 3.1l5.5 12.9-10.4 9.7c-1 0.9-1.1 2.4-0.2 3.4 0.4 0.4 0.9 0.6 1.3 0.7 0.8 0.2 1.6 0 2.2-0.6l9.1-8.4 4.7 11c0.3 0.8 1 1.3 1.8 1.5 0.5 0.1 0.9 0 1.4-0.2 1.2-0.5 1.8-1.9 1.3-3.2l-5.4-12.6 10.6-9.8c1-0.9 1-2.5 0.1-3.5z"/><path class="j" d="m591.3 207.2c1.3 0.3 2.6-0.6 2.9-1.9 0.2-1.3-0.6-2.6-2-2.8l-16.5-3.3c-1.4-0.2-2.6 0.6-2.9 2-0.2 1.3 0.6 2.5 1.9 2.8l5.9 1.2-4.3 22.1c-0.2 1.3 0.6 2.6 2 2.9 1.3 0.2 2.5-0.6 2.8-2l4.3-22.1z"/><path class="j" d="m745.8 270.1l-181.2-35.2 0.7-3.4 181.2 35.2z"/><path class="j" d="m753.7 229.5l-181.2-35.2 0.7-3.5 181.2 35.2z"/><path class="m" d="m771.8 193.9l-7 35.6 34.9 6.9z"/><path class="f" d="m771.8 193.9l-7 35.6 34.9 6.9z"/><path class="h" d="m726.6 477.1l-215.1-41.8 2.2-11.4 215.1 41.8z"/><path class="f" d="m726.6 477.1l-215.1-41.8 2.2-11.4 215.1 41.8z"/><g style="mix-blend-mode:multiply"><path class="i" d="m512.5 430.2l-1 5.1 215.1 41.8 1-5.1z"/></g><path class="h" d="m722 500.9l-215.1-41.8 2.2-11.5 215.1 41.8z"/><path class="f" d="m722 500.9l-215.1-41.8 2.2-11.5 215.1 41.8z"/><g style="mix-blend-mode:multiply"><path class="i" d="m507.9 454.1l-1 5 215.1 41.8 0.9-5z"/></g><path class="f" d="m730.3 451.4l-212.7-41.3 30.2-155.4 212.7 41.3z"/><path class="f" d="m624.1 279.1l-28.5 146.4"/><path class="j" d="m757.2 313.7l-212.9-41.3 3.6-18.4 212.9 41.3z"/><path class="f" d="m757.2 313.7l-212.9-41.3 3.6-18.4 212.9 41.3z"/><g style="mix-blend-mode:multiply"><path class="k" d="m546.2 262.9l-1.9 9.5 212.9 41.3 1.8-9.4z"/></g><path class="f" d="m540 298l211.7 41.1"/><path class="f" d="m534.6 325.6l211.7 41.2"/><path class="f" d="m529.2 353.3l211.8 41.2"/><path class="f" d="m523.8 381l211.8 41.1"/><path class="e" d="m464.2 548.8h-239.6v-195.6h239.6z"/><path class="n" d="m464.2 548.8h-239.6v-195.6h239.6z"/><g style="mix-blend-mode:multiply"><path class="o" d="m452.7 353c0.7 13.1 0.7 117.1 1.2 134.5 0.2 8.9 0.8 39.9-5 46-5.7 5.8-21.3 4.3-31.2 4-13.3-0.3-193.1-1.3-193.1-1.3v12.6h239.6v-195.6z"/></g><path class="p" d="m464.2 411.8v-58.6h-239.6v58.6z"/><path class="n" d="m464.2 411.8v-58.6h-239.6v58.6z"/><g style="mix-blend-mode:multiply"><path class="q" d="m456.6 353.2c-0.3 5.9 0.9 33.4-2.8 39.3-4.3 6.7-12.6 6.9-19.8 7.3-14.2 0.7-153.8-0.1-209.4-0.3v12.3h239.6v-58.6z"/></g><path class="r" d="m249.4 359.8c-3.6-0.2-6.4-3.1-6.4-6.7 0-3.6 3-6.6 6.7-6.6 3.4 0 6.3 2.9 6.6 6.5h4.1c-0.2-5.8-5.1-10.6-10.7-10.6-6 0-10.8 4.8-10.8 10.7 0 5.8 4.5 10.5 10.3 10.8q0.1 0 0.1 0c1.1 0 2-0.9 2.1-2 0-1.1-0.9-2.1-2-2.1z"/><path class="r" d="m273.8 359.8c-3.5-0.2-6.3-3.1-6.3-6.7 0-3.6 2.9-6.6 6.6-6.6 3.4 0 6.4 2.9 6.6 6.5h4.2c-0.3-5.8-5.2-10.6-10.8-10.6-5.9 0-10.8 4.8-10.8 10.7 0 5.8 4.6 10.5 10.3 10.8q0.1 0 0.1 0c1.1 0 2-0.9 2.1-2 0-1.1-0.8-2.1-2-2.1z"/><path class="r" d="m298.2 359.8c-3.5-0.2-6.3-3.1-6.3-6.7 0-3.6 3-6.6 6.6-6.6 3.4 0 6.4 2.9 6.7 6.5h4.1c-0.3-5.8-5.2-10.6-10.8-10.6-5.9 0-10.7 4.8-10.7 10.7 0 5.8 4.5 10.5 10.3 10.8q0 0 0 0c1.1 0 2.1-0.9 2.1-2 0.1-1.1-0.8-2.1-2-2.1z"/><path class="r" d="m438.6 359.9c3.6-0.1 6.4-3 6.4-6.6 0-3.7-3-6.6-6.7-6.6-3.4 0-6.3 2.9-6.6 6.5h-4.1c0.2-5.8 5.1-10.7 10.7-10.7 6 0 10.8 4.9 10.8 10.8 0 5.8-4.5 10.5-10.3 10.8q-0.1 0-0.1 0c-1.1 0-2-0.9-2.1-2 0-1.2 0.9-2.1 2-2.2z"/><path class="r" d="m414.2 359.9c3.5-0.1 6.3-3 6.3-6.6 0-3.7-2.9-6.6-6.6-6.6-3.4 0-6.4 2.9-6.6 6.5h-4.2c0.3-5.8 5.2-10.7 10.8-10.7 5.9 0 10.8 4.9 10.8 10.8 0 5.8-4.6 10.5-10.3 10.8q-0.1 0-0.1 0c-1.1 0-2-0.9-2.1-2 0-1.2 0.9-2.1 2-2.2z"/><path class="r" d="m389.8 359.9c3.5-0.1 6.3-3 6.3-6.6 0-3.7-3-6.6-6.6-6.6-3.4 0-6.4 2.9-6.7 6.5h-4.1c0.3-5.8 5.2-10.7 10.8-10.7 5.9 0 10.7 4.9 10.7 10.8 0 5.8-4.5 10.5-10.3 10.8q0 0 0 0c-1.1 0-2.1-0.9-2.1-2-0.1-1.2 0.8-2.1 2-2.2z"/><path class="r" d="m264.1 453.4h-24.3v-21.4h24.3z"/><path class="r" d="m300.3 453.4h-24.2v-21.4h24.2z"/><path class="r" d="m336.6 453.4h-24.2v-21.4h24.2z"/><path class="r" d="m372.9 453.4h-24.2v-21.4h24.2z"/><path class="r" d="m409.2 453.4h-24.3v-21.4h24.3z"/><path class="r" d="m445.5 453.4h-24.3v-21.4h24.3z"/><path class="r" d="m264.1 489.9h-24.3v-21.5h24.3z"/><path class="r" d="m300.3 489.9h-24.2v-21.5h24.2z"/><path class="r" d="m336.6 489.9h-24.2v-21.5h24.2z"/><path class="r" d="m372.9 489.9h-24.2v-21.5h24.2z"/><path class="r" d="m409.2 489.9h-24.3v-21.5h24.3z"/><path class="r" d="m445.5 489.9h-24.3v-21.5h24.3z"/><path class="r" d="m264 527.5h-24.3v-21.5h24.3z"/><path class="r" d="m300.2 527.5h-24.2v-21.5h24.2z"/><path class="r" d="m336.5 527.5h-24.2v-21.5h24.2z"/><path class="r" d="m372.8 527.5h-24.2v-21.5h24.2z"/><path class="r" d="m409.1 527.5h-24.3v-21.5h24.3z"/><path class="r" d="m445.4 527.5h-24.3v-21.5h24.3z"/><g style="mix-blend-mode:multiply"><path class="o" d="m239.8 444.3v9.1h24.3v-9.1z"/><path class="o" d="m276.1 444.3v9.1h24.2v-9.1z"/><path class="o" d="m312.4 444.3v9.1h24.2v-9.1z"/><path class="o" d="m348.7 444.3v9.1h24.2v-9.1z"/><path class="o" d="m384.9 444.3v9.1h24.3v-9.1z"/><path class="o" d="m421.2 444.3v9.1h24.3v-9.1z"/></g><g style="mix-blend-mode:multiply"><path class="o" d="m239.8 480.6v9.3h24.3v-9.3z"/><path class="o" d="m276.1 480.6v9.3h24.2v-9.3z"/><path class="o" d="m312.4 480.6v9.3h24.2v-9.3z"/><path class="o" d="m348.7 480.6v9.3h24.2v-9.3z"/><path class="o" d="m384.9 480.6v9.3h24.3v-9.3z"/><path class="o" d="m421.2 480.6v9.3h24.3v-9.3z"/></g><g style="mix-blend-mode:multiply"><path class="o" d="m239.7 518.1v9.4h24.3v-9.4z"/><path class="o" d="m276 518.1v9.4h24.2v-9.4z"/><path class="o" d="m312.3 518.1v9.4h24.2v-9.4z"/><path class="o" d="m348.6 518.1v9.4h24.2v-9.4z"/><path class="o" d="m384.8 518.1v9.4h24.3v-9.4z"/><path class="o" d="m421.1 518.1v9.4h24.3v-9.4z"/></g><path class="s" d="m646.2 458.4c0 49.6-40.3 89.9-90 89.9-49.6 0-89.9-40.3-89.9-89.9 0-49.7 40.3-89.9 89.9-89.9 49.7 0 90 40.2 90 89.9z"/><path class="p" d="m655.9 457.6c0 55.1-44.7 99.7-99.8 99.7-55.1 0-99.8-44.6-99.8-99.7 0-55.1 44.7-99.8 99.8-99.8 55.1 0 99.8 44.7 99.8 99.8z"/><path class="f" d="m655.9 457.6c0 55.1-44.7 99.7-99.8 99.7-55.1 0-99.8-44.6-99.8-99.7 0-55.1 44.7-99.8 99.8-99.8 55.1 0 99.8 44.7 99.8 99.8z"/><path class="s" d="m639.7 457.6c0 46.1-37.4 83.6-83.6 83.6-46.2 0-83.6-37.5-83.6-83.6 0-46.2 37.4-83.7 83.6-83.7 46.2 0 83.6 37.5 83.6 83.7z"/><path class="t" d="m639.7 457.6c0 46.1-37.4 83.6-83.6 83.6-46.2 0-83.6-37.5-83.6-83.6 0-46.2 37.4-83.7 83.6-83.7 46.2 0 83.6 37.5 83.6 83.7z"/><g style="mix-blend-mode:multiply"><path fill-rule="evenodd" class="o" d="m639.6 457.6c0 46.1-37.4 83.5-83.5 83.5-46.1 0-83.5-37.4-83.5-83.5 0-46.2 37.4-83.5 83.5-83.5 46.1 0 83.5 37.3 83.5 83.5zm-9.9 0c0-40.7-33-73.6-73.6-73.6-40.7 0-73.6 32.9-73.6 73.6 0 40.6 32.9 73.5 73.6 73.5 40.6 0 73.6-32.9 73.6-73.5z"/></g><g style="mix-blend-mode:multiply"><path fill-rule="evenodd" class="q" d="m655.7 457.6c0 55-44.6 99.6-99.6 99.6-55.1 0-99.7-44.6-99.7-99.6 0-55.1 44.6-99.7 99.7-99.7 55 0 99.6 44.6 99.6 99.7zm-7 0c0-51.2-41.5-92.6-92.6-92.6-51.2 0-92.6 41.4-92.6 92.6 0 51.1 41.4 92.6 92.6 92.6 51.1 0 92.6-41.5 92.6-92.6z"/></g><path class="j" d="m556.1 401.8c-1.2 0-2.1-0.9-2.1-2v-16c0-1.1 0.9-2 2.1-2 1.1 0 2 0.9 2 2v16c0 1.1-0.9 2-2 2z"/><path class="j" d="m556.1 533.4c-1.2 0-2.1-1-2.1-2.1v-16c0-1.1 0.9-2 2.1-2 1.1 0 2 0.9 2 2v16c0 1.1-0.9 2.1-2 2.1z"/><path class="j" d="m498.3 459.6h-16c-1.1 0-2-0.9-2-2 0-1.2 0.9-2.1 2-2.1h16c1.1 0 2 0.9 2 2.1 0 1.1-0.9 2-2 2z"/><path class="j" d="m629.8 459.6h-15.9c-1.2 0-2.1-0.9-2.1-2 0-1.2 0.9-2.1 2.1-2.1h15.9c1.2 0 2.1 0.9 2.1 2.1 0 1.1-0.9 2-2.1 2z"/><path class="u" d="m609.6 456v1.1h-54.7v-1.1z"/><path class="u" d="m562.6 456.5c0-3.8-3.1-6.9-6.9-6.9q-0.9 0-1.8 0.2l-21.4-33.8-4.3 2.8 21.6 34c-0.7 1.1-1 2.4-1 3.7 0 3.4 2.4 6.2 5.6 6.8v48.6h3.1v-48.7c2.9-0.8 5.1-3.5 5.1-6.7z"/></svg>